<svg width="137" height="51" viewBox="0 0 137 51" fill="none" xmlns="http://www.w3.org/2000/svg">
<g clip-path="url(#clip0_21_380)">
<path d="M70.2057 42.1698V34.5899C70.2074 34.2691 70.2981 34.0145 70.4785 33.8262C70.6589 33.6396 70.9186 33.5428 71.2577 33.5376H73.644C74.3099 33.542 74.9017 33.6788 75.4194 33.9456C75.9362 34.2124 76.3441 34.5864 76.6413 35.0686C76.9385 35.5507 77.0902 36.1148 77.0954 36.7617C77.0876 37.4208 76.9333 37.9893 76.6318 38.4653C76.3302 38.9422 75.9267 39.3093 75.4194 39.5673C74.913 39.8245 74.3482 39.9544 73.7251 39.9579H72.2286V42.169C72.2225 42.5081 72.1266 42.7679 71.9401 42.9484C71.7536 43.1289 71.513 43.2204 71.2167 43.2213C70.9212 43.2195 70.6798 43.1289 70.4933 42.9484C70.3077 42.7679 70.2118 42.5081 70.2057 42.169V42.1698ZM72.2277 35.3179V38.1776H73.6031C74.0327 38.1689 74.37 38.032 74.6158 37.767C74.8616 37.5002 74.9871 37.1619 74.9915 36.7486C74.9862 36.3345 74.8607 35.9954 74.6158 35.7312C74.37 35.4653 74.0327 35.3275 73.6031 35.3188H72.2277V35.3179Z" fill="#004B93"/>
<path d="M88.3735 42.1618V34.5819C88.3744 34.255 88.4633 33.9987 88.6394 33.813C88.8154 33.6272 89.0734 33.534 89.4116 33.5296H91.784C92.8325 33.5252 93.6518 33.7685 94.2418 34.2611C94.8319 34.7519 95.1317 35.5253 95.1421 36.5785C95.1238 37.3204 94.8807 37.9037 94.4109 38.3283C93.9411 38.7529 93.3537 39.0197 92.6477 39.1269L94.9399 41.5812C95.1238 41.7861 95.2145 41.984 95.2092 42.1749C95.2049 42.4487 95.1108 42.6876 94.9269 42.8907C94.743 43.0956 94.5007 43.2028 94.1982 43.2133C94.0727 43.215 93.9394 43.188 93.7973 43.1331C93.6552 43.0799 93.528 42.9883 93.4164 42.8619L90.4235 39.2341H90.3964V42.161C90.3903 42.5001 90.2945 42.7599 90.108 42.9395C89.9223 43.1209 89.6809 43.2107 89.3854 43.2133C89.0891 43.2115 88.8485 43.1209 88.662 42.9395C88.4755 42.7599 88.3796 42.5001 88.3735 42.161V42.1618ZM90.3964 35.3901V37.7781H91.7848C92.1622 37.7747 92.4638 37.6692 92.6895 37.4608C92.9161 37.2515 93.0329 36.9586 93.0382 36.5776C93.0329 36.1922 92.9161 35.8984 92.6895 35.6962C92.4638 35.493 92.1614 35.3919 91.7848 35.391H90.3964V35.3901Z" fill="#004B93"/>
<path d="M118.301 42.1297V34.5768C118.307 34.2621 118.403 34.011 118.593 33.8244C118.782 33.6379 119.03 33.5428 119.339 33.5376H121.578C122.587 33.5437 123.445 33.7477 124.15 34.1531C124.856 34.5568 125.394 35.127 125.764 35.8646C126.134 36.6013 126.321 37.4714 126.322 38.4749C126.317 39.4244 126.125 40.2465 125.745 40.944C125.365 41.6406 124.83 42.1794 124.143 42.5622C123.454 42.944 122.644 43.1376 121.712 43.1419H119.366C119.127 43.1489 118.894 43.0757 118.667 42.9257C118.44 42.774 118.319 42.5098 118.302 42.1315L118.301 42.1297ZM120.323 35.4008V41.2823H121.686C122.264 41.2762 122.741 41.1454 123.115 40.8891C123.49 40.6336 123.769 40.2884 123.949 39.8533C124.131 39.4183 124.221 38.9274 124.22 38.3825C124.225 37.5028 124.013 36.7905 123.584 36.2447C123.154 35.6989 122.476 35.4173 121.551 35.4016H120.323V35.4008Z" fill="#004B93"/>
<path d="M64.0105 35.7075L62.4539 39.3946H65.5584L64.0376 35.7075H64.0105ZM59.1978 41.8358L62.582 34.4974C62.7598 34.18 62.8819 33.9158 63.1311 33.7066C63.3804 33.4965 63.6776 33.3866 64.0245 33.3796C64.3836 33.3857 64.6843 33.4912 64.9283 33.697C65.1723 33.9019 65.2978 34.1704 65.4687 34.4982L68.7841 41.8366C68.8608 42.0633 68.8957 42.229 68.8922 42.3353C68.8852 42.603 68.792 42.8175 68.6142 42.9779C68.4364 43.1383 68.2193 43.222 67.9622 43.2255C67.6825 43.222 67.4646 43.1557 67.3086 43.0267C67.1534 42.8977 67.0854 42.7294 66.9782 42.5236L66.349 41.256H61.7018L61.0734 42.5097C60.9679 42.7285 60.8991 42.8942 60.7448 43.0241C60.5905 43.1549 60.377 43.2211 60.1024 43.2246C59.8253 43.2203 59.5917 43.1305 59.4017 42.9552C59.2117 42.7817 59.1123 42.5568 59.1045 42.2813C59.1219 42.059 59.1533 41.9099 59.1986 41.8366" fill="#004B93"/>
<path d="M81.9963 35.7075L80.4397 39.3946H83.5442L82.0224 35.7075H81.9963ZM77.1826 41.8358L80.5678 34.4974C80.7456 34.18 80.8676 33.9158 81.1169 33.7066C81.3661 33.4965 81.6633 33.3866 82.0102 33.3796C82.3684 33.3857 82.67 33.4912 82.9132 33.697C83.1572 33.9019 83.2827 34.1704 83.4535 34.4982L86.769 41.8366C86.8448 42.0633 86.8814 42.229 86.8771 42.3353C86.8692 42.603 86.7768 42.8175 86.599 42.9779C86.4212 43.1383 86.2042 43.222 85.9471 43.2255C85.6665 43.222 85.4486 43.1557 85.2925 43.0267C85.1365 42.8977 85.0686 42.7294 84.9622 42.5236L84.3338 41.256H79.6866L79.0574 42.5097C78.9528 42.7285 78.883 42.8942 78.7288 43.0241C78.5754 43.1549 78.361 43.2211 78.0864 43.2246C77.8093 43.2203 77.5757 43.1305 77.3857 42.9552C77.1957 42.7817 77.0972 42.5568 77.0894 42.2813C77.1068 42.059 77.1382 41.9099 77.1835 41.8366" fill="#004B93"/>
<path d="M131.721 35.7075L130.165 39.3946H133.27L131.748 35.7075H131.721ZM126.908 41.8358L130.293 34.4974C130.471 34.18 130.593 33.9158 130.842 33.7066C131.092 33.4965 131.389 33.3866 131.736 33.3796C132.094 33.3857 132.395 33.4912 132.639 33.697C132.883 33.9019 133.009 34.1704 133.179 34.4982L136.495 41.8366C136.573 42.0633 136.608 42.229 136.603 42.3353C136.596 42.603 136.503 42.8175 136.324 42.9779C136.148 43.1383 135.93 43.222 135.673 43.2255C135.393 43.222 135.175 43.1557 135.019 43.0267C134.865 42.8977 134.795 42.7294 134.689 42.5236L134.059 41.256H129.412L128.784 42.5097C128.678 42.7285 128.608 42.8942 128.454 43.0241C128.301 43.1549 128.086 43.2211 127.813 43.2246C127.535 43.2203 127.302 43.1305 127.112 42.9552C126.922 42.7817 126.823 42.5568 126.816 42.2813C126.833 42.059 126.864 41.9099 126.91 41.8366" fill="#004B93"/>
<path d="M96.9933 42.1297V34.712C96.9933 34.3676 97.0787 34.0886 97.2513 33.8715C97.4239 33.6562 97.6888 33.5446 98.0453 33.5376H101.389C101.712 33.5472 101.952 33.6431 102.111 33.8253C102.268 34.0084 102.347 34.2229 102.346 34.4679C102.346 34.7085 102.266 34.9204 102.105 35.1061C101.945 35.2909 101.707 35.3894 101.389 35.399H99.0162V37.3546H101.227C101.557 37.3642 101.804 37.4609 101.966 37.6432C102.129 37.8262 102.211 38.0407 102.211 38.2848C102.211 38.5246 102.127 38.7373 101.961 38.923C101.796 39.1087 101.551 39.2055 101.227 39.216H99.0162V41.2797H101.511C101.833 41.2893 102.074 41.3852 102.231 41.5682C102.389 41.7513 102.468 41.9649 102.467 42.2108C102.467 42.4506 102.387 42.6624 102.226 42.8473C102.066 43.033 101.827 43.1306 101.51 43.1402H98.0305C97.728 43.1358 97.4805 43.0434 97.2888 42.863C97.0979 42.6807 96.9985 42.4366 96.9924 42.1297" fill="#004B93"/>
<path d="M104.218 38.3345C104.224 37.3903 104.421 36.5454 104.809 35.8009C105.196 35.0563 105.738 34.4678 106.431 34.0354C107.124 33.6029 107.931 33.3806 108.855 33.3719C109.201 33.3675 109.598 33.4111 110.045 33.4992C110.491 33.5872 110.883 33.7424 111.222 33.9621C111.559 34.1827 111.737 34.4887 111.755 34.8819C111.751 35.1322 111.674 35.3431 111.523 35.5149C111.373 35.6875 111.172 35.7773 110.918 35.7852C110.74 35.7791 110.564 35.7381 110.39 35.6622C110.215 35.5873 110.009 35.5114 109.77 35.4356C109.532 35.3597 109.227 35.3187 108.855 35.3126C108.298 35.3205 107.83 35.4626 107.455 35.7407C107.079 36.0188 106.797 36.3894 106.607 36.8497C106.416 37.3109 106.321 37.8201 106.321 38.3755C106.321 38.9177 106.417 39.413 106.609 39.8611C106.801 40.3101 107.084 40.6684 107.461 40.9396C107.836 41.2107 108.303 41.3493 108.854 41.3555C109.227 41.3485 109.539 41.2997 109.791 41.2081C110.042 41.1174 110.262 41.0268 110.449 40.9361C110.636 40.8454 110.821 40.7957 110.999 40.7887C111.201 40.7948 111.368 40.8506 111.5 40.957C111.631 41.0634 111.729 41.1881 111.793 41.3302C111.858 41.4714 111.889 41.597 111.889 41.7059C111.881 42.0277 111.77 42.2927 111.555 42.5011C111.34 42.7086 111.07 42.8707 110.746 42.9867C110.421 43.1035 110.089 43.1846 109.75 43.2308C109.41 43.2761 109.112 43.2997 108.854 43.2979C107.937 43.2884 107.13 43.0652 106.437 42.631C105.743 42.1968 105.201 41.6057 104.812 40.862C104.422 40.1165 104.223 39.2743 104.217 38.3336" fill="#004B93"/>
<path d="M113.943 42.1698V34.5097C113.949 34.1706 114.045 33.9107 114.231 33.7311C114.418 33.5498 114.659 33.46 114.955 33.4583C115.25 33.46 115.491 33.5507 115.676 33.7311C115.864 33.9107 115.959 34.1706 115.966 34.5097V42.1698C115.959 42.509 115.863 42.7679 115.676 42.9484C115.49 43.1289 115.25 43.2195 114.955 43.2213C114.659 43.2195 114.418 43.1289 114.231 42.9484C114.045 42.7679 113.95 42.5081 113.943 42.1698Z" fill="#004B93"/>
<path d="M64.1588 12.3603C64.1588 12.6183 63.9618 12.8389 63.6916 12.8389C63.2122 12.8389 63.0536 12.2739 61.9729 12.2739C61.1745 12.2739 60.5853 12.7779 60.5853 13.5146C60.5853 15.4431 64.7357 14.5216 64.7357 17.4693C64.7357 18.9184 63.6803 20.2331 61.7768 20.2331C60.6228 20.2331 59.3451 19.7911 59.3451 19.1773C59.3451 18.8826 59.4924 18.6245 59.8 18.6245C60.1687 18.6245 60.6838 19.3002 61.789 19.3002C62.8941 19.3002 63.5818 18.4894 63.5818 17.519C63.5818 15.4431 59.4314 16.4501 59.4314 13.5887C59.4314 12.5695 60.3892 11.3411 62.0103 11.3411C63.0911 11.3411 64.1588 11.7953 64.1588 12.3603" fill="#004B93"/>
<path d="M71.0345 12.5939H71.0101L69.3279 17.3229H72.7166L71.0345 12.5939V12.5939ZM68.4311 19.8286C68.3448 20.0622 68.1975 20.234 67.9029 20.234C67.6083 20.234 67.387 20.0622 67.387 19.7797C67.387 19.6324 67.4977 19.3499 67.5343 19.2392L70.2474 12.0045C70.3825 11.6235 70.6039 11.3411 71.0214 11.3411C71.4389 11.3411 71.6594 11.6235 71.7954 12.0045L74.5094 19.2392C74.546 19.3499 74.6567 19.6324 74.6567 19.7797C74.6567 20.0622 74.4231 20.234 74.1407 20.234C73.8583 20.234 73.698 20.0622 73.6126 19.8286L73.0478 18.2566H68.9959L68.4311 19.8286V19.8286Z" fill="#004B93"/>
<path d="M78.8447 19.6568C78.8447 20.0125 78.6355 20.234 78.3043 20.234C77.9731 20.234 77.7639 20.0134 77.7639 19.6568V11.9801C77.7639 11.5494 77.9112 11.3419 78.2555 11.3419C78.5745 11.3419 78.7218 11.4771 79.0164 11.9069L83.437 18.2566H83.4614V11.9182C83.4614 11.5616 83.6705 11.3411 84.0017 11.3411C84.3329 11.3411 84.5421 11.5616 84.5421 11.9182V19.5958C84.5421 20.0256 84.3948 20.234 84.0514 20.234C83.7324 20.234 83.5851 20.0988 83.2905 19.6699L78.8699 13.3193H78.8455V19.6577L78.8447 19.6568Z" fill="#004B93"/>
<path d="M89.7113 12.422H88.078C87.7712 12.422 87.5498 12.2625 87.5498 11.9181C87.5498 11.5737 87.7712 11.415 88.078 11.415H92.4253C92.7321 11.415 92.9535 11.5746 92.9535 11.9181C92.9535 12.2616 92.7321 12.422 92.4253 12.422H90.792V19.6567C90.792 20.0133 90.5837 20.2338 90.2517 20.2338C89.9196 20.2338 89.7113 20.0133 89.7113 19.6567V12.422V12.422Z" fill="#004B93"/>
<path d="M95.9623 11.9182C95.9623 11.5616 96.1715 11.3411 96.5026 11.3411C96.8338 11.3411 97.043 11.5616 97.043 11.9182V17.1136C97.043 18.4894 97.9765 19.3002 99.3518 19.3002C100.727 19.3002 101.661 18.4894 101.661 17.1136V11.9182C101.661 11.5616 101.869 11.3411 102.2 11.3411C102.531 11.3411 102.74 11.5616 102.74 11.9182V16.696C102.74 19.6446 100.849 20.234 99.3509 20.234C97.8527 20.234 95.9623 19.6446 95.9623 16.696V11.9182Z" fill="#004B93"/>
<path d="M109.003 10.6286C108.793 10.7149 108.696 10.7393 108.585 10.7393C108.266 10.7393 108.119 10.4071 108.119 10.2232C108.119 10.0758 108.204 9.90409 108.548 9.76895L109.96 9.19178C110.17 9.10547 110.267 9.08105 110.378 9.08105C110.698 9.08105 110.844 9.41236 110.844 9.59719C110.844 9.74454 110.759 9.91629 110.415 10.0514L109.003 10.6286ZM109.494 12.5938H109.47L107.788 17.3227H111.176L109.494 12.5938V12.5938ZM106.891 19.8284C106.805 20.0621 106.657 20.2338 106.363 20.2338C106.068 20.2338 105.847 20.0621 105.847 19.7796C105.847 19.6322 105.957 19.3498 105.994 19.239L108.708 12.0044C108.843 11.6234 109.065 11.3409 109.482 11.3409C109.899 11.3409 110.121 11.6234 110.256 12.0044L112.97 19.239C113.007 19.3498 113.117 19.6322 113.117 19.7796C113.117 20.0621 112.884 20.2338 112.601 20.2338C112.319 20.2338 112.159 20.0621 112.073 19.8284L111.509 18.2565H107.456L106.892 19.8284H106.891Z" fill="#004B93"/>
<path d="M117.303 15.4561H118.777C119.907 15.4561 120.398 14.9774 120.398 13.8466C120.398 13.0358 119.759 12.3479 118.753 12.3479H117.304V15.4552L117.303 15.4561ZM117.303 19.6576C117.303 20.0133 117.095 20.2347 116.763 20.2347C116.431 20.2347 116.223 20.0141 116.223 19.6576V12.0053C116.223 11.6731 116.394 11.415 116.8 11.415H118.801C120.176 11.415 121.478 12.3488 121.478 13.7734C121.478 15.5424 120.397 16.2059 119.096 16.2547L118.629 16.2669L121.417 19.3254C121.564 19.4849 121.626 19.6201 121.626 19.8171C121.626 20.0508 121.404 20.2347 121.134 20.2347C120.913 20.2347 120.765 20.1249 120.642 19.9897L117.303 16.3297V19.6584L117.303 19.6576Z" fill="#004B93"/>
<path d="M125.948 19.6568C125.948 20.0125 125.739 20.234 125.407 20.234C125.076 20.234 124.867 20.0134 124.867 19.6568V11.9182C124.867 11.5616 125.076 11.3411 125.407 11.3411C125.739 11.3411 125.948 11.5616 125.948 11.9182V19.6568V19.6568Z" fill="#004B93"/>
<path d="M133.143 19.3002C135.108 19.3002 135.82 17.458 135.82 15.7867C135.82 14.1153 135.108 12.2739 133.143 12.2739C131.179 12.2739 130.467 14.1162 130.467 15.7867C130.467 17.4571 131.179 19.3002 133.143 19.3002ZM133.143 11.3411C135.636 11.3411 136.975 13.5146 136.975 15.7875C136.975 18.0604 135.636 20.234 133.143 20.234C130.651 20.234 129.312 18.0596 129.312 15.7875C129.312 13.5155 130.651 11.3411 133.143 11.3411Z" fill="#004B93"/>
<path d="M60.8799 30.7406C60.8799 31.0971 60.6716 31.3177 60.3396 31.3177C60.0075 31.3177 59.7992 31.0971 59.7992 30.7406V23.0639C59.7992 22.6341 59.9465 22.4248 60.2899 22.4248C60.6089 22.4248 60.7562 22.5599 61.0516 22.9898L65.4714 29.3404H65.4966V23.002C65.4966 22.6463 65.7058 22.4248 66.037 22.4248C66.3682 22.4248 66.5774 22.6463 66.5774 23.002V30.6795C66.5774 31.1093 66.4301 31.3186 66.0858 31.3186C65.7668 31.3186 65.6195 31.1835 65.3241 30.7536L60.9035 24.4039H60.8791V30.7414L60.8799 30.7406Z" fill="#004B93"/>
<path d="M74.4362 23.6777H74.4118L72.7297 28.4066H76.1183L74.4362 23.6777V23.6777ZM71.8328 30.9123C71.7465 31.146 71.5993 31.3177 71.3047 31.3177C71.0101 31.3177 70.7887 31.146 70.7887 30.8635C70.7887 30.7161 70.8994 30.4337 70.936 30.3229L73.6492 23.0883C73.7843 22.7073 74.0057 22.4248 74.4231 22.4248C74.8406 22.4248 75.0611 22.7073 75.1971 23.0883L77.9111 30.3229C77.9478 30.4337 78.0584 30.7161 78.0584 30.8635C78.0584 31.146 77.8249 31.3177 77.5425 31.3177C77.2601 31.3177 77.0997 31.146 77.0143 30.9123L76.4495 29.3404H72.3976L71.8328 30.9123V30.9123Z" fill="#004B93"/>
<path d="M85.7701 30.3841C87.0845 30.3841 87.6606 29.5977 88.1155 29.5977C88.3735 29.5977 88.5452 29.7939 88.5452 30.1008C88.5452 30.6535 87.305 31.317 85.7701 31.317C83.2408 31.317 81.9387 29.1426 81.9387 26.8705C81.9387 24.5985 83.2408 22.4241 85.8311 22.4241C87.379 22.4241 88.3604 23.2593 88.3604 23.7013C88.3604 23.9838 88.1887 24.2175 87.9185 24.2175C87.4279 24.2175 87.1821 23.3578 85.8311 23.3578C83.891 23.3578 83.0935 25.2001 83.0935 26.8705C83.0935 28.541 83.9163 30.3841 85.7701 30.3841" fill="#004B93"/>
<path d="M94.0099 30.7406C94.0099 31.0971 93.8008 31.3177 93.4696 31.3177C93.1384 31.3177 92.9292 31.0971 92.9292 30.7406V23.002C92.9292 22.6463 93.1384 22.4248 93.4696 22.4248C93.8008 22.4248 94.0099 22.6463 94.0099 23.002V30.7406Z" fill="#004B93"/>
<path d="M102.31 30.3841C104.274 30.3841 104.987 28.541 104.987 26.8705C104.987 25.2001 104.274 23.3578 102.31 23.3578C100.345 23.3578 99.6333 25.2001 99.6333 26.8705C99.6333 28.541 100.346 30.3841 102.31 30.3841ZM102.31 22.4241C104.803 22.4241 106.141 24.5985 106.141 26.8705C106.141 29.1426 104.803 31.317 102.31 31.317C99.8164 31.317 98.4794 29.1426 98.4794 26.8705C98.4794 24.5985 99.8172 22.4241 102.31 22.4241Z" fill="#004B93"/>
<path d="M111.691 30.7406C111.691 31.0971 111.483 31.3177 111.151 31.3177C110.819 31.3177 110.611 31.0971 110.611 30.7406V23.0639C110.611 22.6341 110.758 22.4248 111.102 22.4248C111.421 22.4248 111.569 22.5599 111.863 22.9898L116.284 29.3404H116.309V23.002C116.309 22.6463 116.517 22.4248 116.849 22.4248C117.18 22.4248 117.389 22.6463 117.389 23.002V30.6795C117.389 31.1093 117.242 31.3186 116.897 31.3186C116.577 31.3186 116.431 31.1835 116.136 30.7536L111.715 24.4039H111.691V30.7414L111.691 30.7406Z" fill="#004B93"/>
<path d="M125.248 23.6777H125.224L123.542 28.4066H126.931L125.249 23.6777H125.248ZM122.645 30.9123C122.559 31.146 122.412 31.3177 122.117 31.3177C121.823 31.3177 121.602 31.146 121.602 30.8635C121.602 30.7161 121.712 30.4337 121.749 30.3229L124.463 23.0883C124.598 22.7073 124.818 22.4248 125.236 22.4248C125.653 22.4248 125.874 22.7073 126.01 23.0883L128.723 30.3229C128.759 30.4337 128.87 30.7161 128.87 30.8635C128.87 31.146 128.636 31.3177 128.354 31.3177C128.072 31.3177 127.912 31.146 127.827 30.9123L127.262 29.3404H123.21L122.645 30.9123V30.9123Z" fill="#004B93"/>
<path d="M134.163 30.2366H136.471C136.778 30.2366 136.999 30.3962 136.999 30.7406C136.999 31.0849 136.778 31.2445 136.471 31.2445H133.659C133.254 31.2445 133.082 30.9873 133.082 30.6551V23.002C133.082 22.6463 133.291 22.4248 133.623 22.4248C133.954 22.4248 134.163 22.6463 134.163 23.002V30.2375V30.2366Z" fill="#004B93"/>
<path d="M32.9122 25.7047L33.1457 25.811C31.4331 16.2921 29.262 7.61283 26.7197 0.0276921C26.6508 0.0242046 26.5802 0.0250765 26.5105 0.0224609C28.3748 7.61806 29.9671 16.3122 31.2222 25.8468L32.9113 25.7047H32.9122Z" fill="#004B93"/>
<path d="M12.3989 25.9071C15.6062 16.3498 19.6739 7.63385 24.4439 0.0234375C24.3123 0.0286686 24.1807 0.0330279 24.0491 0.0400027C18.9199 7.68093 14.5281 16.389 11.0183 25.9071H12.398H12.3989Z" fill="#004B93"/>
<path d="M1.9558 28.3797L4.05453 25.9071H4.55656C9.57156 16.4161 15.8495 7.73416 23.1654 0.107178C10.1773 1.28418 0 12.1998 0 25.4982C0 28.1024 0.392206 30.6142 1.11735 32.9805C1.39102 32.3649 1.67341 31.7538 1.95754 31.1435L1.9558 28.3797Z" fill="#004B93"/>
<path d="M20.25 19.6123C20.2709 19.6009 20.2918 19.5905 20.3128 19.5791C20.4339 19.5146 20.5577 19.4553 20.684 19.4004C20.7233 19.383 20.7625 19.3664 20.8017 19.3498C20.9185 19.3019 21.0379 19.2592 21.1582 19.2191C21.1991 19.206 21.2384 19.1903 21.2793 19.1781C21.3891 19.1449 21.5016 19.1188 21.614 19.0918C21.7352 18.3097 21.8589 17.5346 21.9853 16.7657C22.9754 10.7324 24.1058 5.11419 25.3617 -0.000976562C25.2894 -0.000976562 25.2188 0.00338271 25.1473 0.00425456C23.1453 5.97559 21.3752 12.6304 19.8761 19.8355C19.9972 19.7561 20.1219 19.6811 20.25 19.6114" fill="#004B93"/>
<path d="M41.2766 28.6935V27.1861C37.7032 17.1955 33.1623 8.07418 27.824 0.107175C27.6915 0.0949691 27.5581 0.0871224 27.4257 0.0766602C32.5174 8.21193 36.8063 17.6105 40.1026 27.9464L41.2775 28.6935H41.2766Z" fill="#004B93"/>
<path d="M44.1536 15.0866V14.5207H43.4703V12.8982H44.1536V11.9897H45.7756V12.8982H46.4589V14.5207H45.7756V15.0866L48.6526 16.3324V28.6561C49.1773 29.7171 49.6924 30.7843 50.1857 31.8636C50.7087 29.8287 50.9867 27.6962 50.9867 25.4982C50.9867 12.5137 41.2835 1.80385 28.7365 0.209229C33.4481 5.13259 37.7241 10.4971 41.5119 16.2304L44.1536 15.0857V15.0866Z" fill="#004B93"/>
<path d="M5.82996 41.7287C10.5059 47.3905 17.5787 51 25.4934 51C33.4081 51 40.4817 47.3914 45.1568 41.7287C38.7822 40.5439 32.2106 39.9231 25.4934 39.9231C18.7762 39.9231 12.2037 40.5439 5.82996 41.7287" fill="#004B93"/>
<path d="M48.1149 16.6854L45.2378 15.4395V13.9826H45.9212V13.436H45.2378V12.5266H44.6914V13.436H44.0081V13.9826H44.6914V15.4395L41.8143 16.6854V40.0441C43.194 40.2533 44.5641 40.4887 45.9264 40.7503C46.1661 40.4294 46.3979 40.1034 46.6228 39.7712C46.6297 39.7607 46.6367 39.7503 46.6437 39.7398C46.8651 39.412 47.0786 39.0781 47.2852 38.7389C47.2939 38.725 47.3017 38.711 47.3104 38.6979C47.5083 38.371 47.6992 38.0388 47.8822 37.7032C47.8979 37.6744 47.9136 37.6465 47.9284 37.6186C47.9929 37.4991 48.0513 37.3753 48.1149 37.255V16.6854V16.6854Z" fill="#004B93"/>
<path d="M37.7851 27.7117V28.2784H39.6276L37.9586 27.2122H36.6965L37.7851 27.7117Z" fill="#004B93"/>
<path d="M5.05505 26.5811L6.77466 28.3021H19.8046L16.9319 26.5811H5.05505Z" fill="#004B93"/>
<path d="M23.9516 19.5992V19.0516H23.9455C23.6431 18.9836 23.3302 18.9461 23.0094 18.9383V18.124H23.6248V17.8502H23.0094V17.5765H23.4199V17.3027H23.0094V16.7961H22.7358V17.3027H22.3261V17.5765H22.7358V17.8502H22.1204V18.124H22.7358V18.94C22.4342 18.9505 22.1396 18.988 21.8546 19.0516H21.8485V19.5861C19.7044 20.0377 18.0729 21.8808 17.9421 24.1267L19.6321 23.7038H22.4734L27.8031 24.1729C27.6932 21.9261 26.0826 20.0743 23.9516 19.5983" fill="#004B93"/>
<path d="M32.5984 28.112C31.9134 28.112 31.3007 28.4232 30.8945 28.9123C31.1054 28.8077 31.3425 28.7475 31.5935 28.7475C32.4659 28.7475 33.1728 29.4546 33.1728 30.3273V35.745H30.7524V38.9456C32.1121 39.011 33.4656 39.1008 34.8122 39.2159V30.3265C34.8122 29.1033 33.8204 28.1111 32.5984 28.1111" fill="#004B93"/>
<path d="M21.7351 30.1669H22.4734V38.8619C23.4765 38.834 24.4832 38.8192 25.4933 38.8192C27.0081 38.8192 28.5151 38.8524 30.015 38.9134V30.3274C30.015 28.7981 31.2544 27.5584 32.7831 27.5584C34.3119 27.5584 35.5512 28.7981 35.5512 30.3274V39.2822C36.0515 39.3284 36.5501 39.3781 37.0477 39.4313V28.1861L32.8285 26.2514L23.2116 27.0597V26.3046L28.8097 25.8338V25.0047L22.4411 24.4441H19.7236L16.9328 25.1416V25.7214L21.2418 28.3029L22.4742 29.0414H6.46964L4.1042 26.6752L2.49268 28.5592V36.5071C3.21172 38.0084 4.07283 39.4287 5.06031 40.7495C10.4858 39.712 16.0551 39.079 21.736 38.8846V30.1669H21.7351ZM5.09866 36.895H3.26924V29.6159C3.26924 28.8635 3.67888 28.2532 4.18439 28.2532C4.6899 28.2532 5.09953 28.8635 5.09953 29.6159V36.895H5.09866Z" fill="#004B93"/>
<path d="M37.785 29.0168V39.5114C38.7891 39.6247 39.7879 39.7529 40.7832 39.8932V29.0177H37.785V29.0168Z" fill="#004B93"/>
</g>
<defs>
<clipPath id="clip0_21_380">
<rect width="137" height="51" fill="white"/>
</clipPath>
</defs>
</svg>
