<svg width="48" height="48" viewBox="0 0 48 48" fill="none" xmlns="http://www.w3.org/2000/svg">
<path d="M44.0815 0H3.91836C1.75787 0 0 1.75778 0 3.91836V31.3469C0 33.5075 1.75778 35.2652 3.91836 35.2652H26.9387V47.0203C26.9387 47.4237 27.1859 47.7858 27.5615 47.9327C27.6775 47.9781 27.7983 48 27.9181 48C28.1863 48 28.449 47.8897 28.6381 47.6848L40.1023 35.2652H44.0815C46.2421 35.2652 47.9999 33.5075 47.9999 31.3469V3.91836C47.9999 1.75778 46.2422 0 44.0815 0ZM46.0407 31.3469C46.0407 32.4272 45.1618 33.3061 44.0815 33.3061H39.6734C39.4 33.3061 39.139 33.4204 38.9536 33.6212L28.8979 44.5148V34.2856C28.8979 33.7446 28.4592 33.3061 27.9183 33.3061H3.91836C2.83807 33.3061 1.95918 32.4272 1.95918 31.3469V3.91836C1.95918 2.83807 2.83807 1.95918 3.91836 1.95918H44.0815C45.1618 1.95918 46.0407 2.83807 46.0407 3.91836V31.3469Z" fill="white"/>
<path d="M21.0613 20.0816V15.1836C21.0613 10.8625 17.5457 7.34692 13.2245 7.34692C8.90337 7.34692 5.38782 10.8625 5.38782 15.1836V20.0816C5.38782 24.4028 8.90337 27.9183 13.2245 27.9183C15.0328 27.9183 16.6986 27.3011 18.0261 26.2685L20.3686 28.611L21.754 27.2255L19.4115 24.8831C20.444 23.5556 21.0613 21.8898 21.0613 20.0816ZM19.1021 20.0816C19.1021 21.3491 18.6974 22.5231 18.0125 23.4841L15.3866 20.8582L14.0012 22.2436L16.627 24.8695C15.6661 25.5546 14.492 25.9591 13.2245 25.9591C9.98366 25.9591 7.347 23.3225 7.347 20.0816V15.1836C7.347 11.9428 9.98366 9.3061 13.2245 9.3061C16.4654 9.3061 19.1021 11.9428 19.1021 15.1836V20.0816Z" fill="white"/>
<path d="M32.8163 9.30615H24.9796V11.2653H32.8163V9.30615Z" fill="white"/>
<path d="M40.1632 9.30615H34.2856V11.2653H40.1632V9.30615Z" fill="white"/>
<path d="M42.6122 14.2041H24.9796V16.1633H42.6122V14.2041Z" fill="white"/>
<path d="M42.6122 19.1021H24.9796V21.0612H42.6122V19.1021Z" fill="white"/>
<path d="M42.6122 24H24.9796V25.9592H42.6122V24Z" fill="white"/>
</svg>
